<?xml version="1.0" encoding="iso-8859-1"?>
<!-- Uploaded to: SVG Repo, www.svgrepo.com, Generator: SVG Repo Mixer Tools -->
<!DOCTYPE svg PUBLIC "-//W3C//DTD SVG 1.1//EN" "http://www.w3.org/Graphics/SVG/1.1/DTD/svg11.dtd">
<svg fill="#000000" version="1.1" id="Capa_1" xmlns="http://www.w3.org/2000/svg" xmlns:xlink="http://www.w3.org/1999/xlink" 
	 width="800px" height="800px" viewBox="0 0 432.521 432.521"
	 xml:space="preserve">
<g>
	<path d="M371.514,60.367c0-0.612,0-1.224-0.612-1.836c1.225-4.284-1.224-10.404-6.731-9.792
		c-25.704,1.224-52.021,1.224-77.725,1.224c4.284-6.732,0.612-18.36-4.283-24.48c-11.628-14.688-34.885-20.196-52.021-23.256
		c-18.971-3.672-41.003-3.672-58.139,6.732c-12.24,7.344-17.748,24.48-12.852,37.332c-17.748-0.612-36.108-0.612-53.244,2.448
		c-9.792,1.836-26.928-0.612-34.884,7.344c0,0-0.612,0.612-0.612,1.224c-1.224,0-2.448,0-3.672,0.612
		c-6.732,3.06-6.12,13.464-6.12,19.584c0,8.568,1.836,17.136,3.672,25.704c0.612,1.836,1.224,3.06,2.448,3.672
		c1.224,2.448,3.06,3.672,6.12,3.06c64.872-0.612,129.132,1.836,194.003,4.284c15.301,0.612,80.784,9.18,96.084-7.344
		c1.225,0,2.448-0.612,3.061-1.224c4.284-4.896,4.284-12.852,4.896-19.584C372.126,76.891,372.126,68.323,371.514,60.367z
		 M76.531,83.623c-0.612,0-0.612,0-1.224,0c0-1.836,0-3.06,0-4.896c0-2.448,0.612-4.896,1.224-7.344c0,1.836,0.612,3.06,1.836,4.284
		C75.919,78.115,75.307,81.175,76.531,83.623z M212.395,15.079c-3.06,0-6.12,0.612-7.956,1.836c-2.448,0-4.896,0-7.344,0.612
		c-1.224-0.612-2.448-1.224-3.672-1.224C199.542,14.467,206.275,14.467,212.395,15.079z"/>
	<path d="M347.646,146.047c0-1.224,0-2.448-0.611-3.672c1.224-3.06-0.612-6.732-3.673-7.956
		c-40.392-12.852-93.636-6.12-135.863-6.732c-23.868,0-47.736,0-70.992,0.612c-12.24,0-28.152-2.448-40.392,3.06
		c-3.672-1.836-9.18,0-8.568,4.896c9.18,83.233-37.944,263.161,78.948,289.477c56.304,12.852,140.147,12.852,165.239-48.96
		c12.853-31.824,7.956-70.992,6.732-104.04C336.018,229.891,343.974,187.663,347.646,146.047z M132.835,358.412
		c0.612-61.2-15.3-123.624,0-183.601c5.508-20.808,14.688-14.688,19.584,2.448c6.12,22.032,6.732,45.9,7.956,68.544
		c0.612,19.584,0.612,39.78,0.612,59.364c0,6.12,0,12.24,0,17.748c0,7.344,0.612,14.688,0.612,22.032
		C162.211,363.919,144.463,366.98,132.835,358.412z M167.107,171.139c-0.612-3.06-1.836-6.732-3.06-9.18
		c1.224,0.612,2.448,0.612,3.672,1.224C167.107,165.631,167.107,168.079,167.107,171.139z M238.098,291.091
		c-1.224,14.076-8.568,96.696-33.66,69.769c-1.224-1.225-2.448-1.836-3.672-2.448c1.836-44.064-4.896-88.128-3.672-132.804
		c0.612-13.465,1.836-27.541,4.896-41.005c1.224-6.12,3.06-12.24,5.508-17.748c7.957-17.748,24.479,5.508,27.54,13.464
		C247.89,213.367,240.546,256.82,238.098,291.091z M257.07,283.135c0,4.284-0.611,8.568-0.611,12.853
		c-0.612-0.612-1.225-0.612-1.225-1.225c2.448-19.584,4.284-41.004,3.672-61.199c0.612,0,0.612,0,1.225,0
		C258.294,250.7,258.294,266.612,257.07,283.135z M307.254,293.54c-3.061,15.912-11.017,82.62-32.437,69.768
		c-0.611-0.611-1.836-0.611-3.06-0.611c-9.18-34.272,1.224-75.889,1.224-110.772c0-12.24,4.896-96.084,25.092-87.516
		C333.57,180.319,312.762,266.612,307.254,293.54z M331.123,150.331c-1.225-1.836-3.061-3.06-6.12-3.06c-6.12,0-12.24,0-18.36,0
		c0-0.612,0.612-0.612,0.612-1.224c7.956,0.612,16.523,1.224,24.479,0.612C331.734,147.883,331.123,149.107,331.123,150.331z"/>
</g>
</svg>