<?xml version="1.0" encoding="utf-8"?>
<!-- Uploaded to: SVG Repo, www.svgrepo.com, Generator: SVG Repo Mixer Tools -->
<svg fill="#000000" width="800px" height="800px" viewBox="0 0 32 32" version="1.1" xmlns="http://www.w3.org/2000/svg">
<title>quotes</title>
<path d="M16.75 11.746c0-0.003 0-0.006 0-0.009 0-1.947-1.578-3.525-3.525-3.525-0.765 0-1.472 0.243-2.050 0.657l0.011-0.007c-0.001-0.086 0.001-0.172 0-0.257l-0.003-0.251c-0.010-0.203-0.016-0.442-0.016-0.681 0-0.743 0.057-1.473 0.168-2.185l-0.010 0.079c0.070-0.516 0.266-0.976 0.554-1.362l-0.005 0.008c0.351-0.372 0.798-0.651 1.301-0.798l0.021-0.005c0.685-0.254 1.515-0.486 2.368-0.654l0.106-0.017c0.357-0.062 0.626-0.369 0.626-0.74 0-0.414-0.336-0.75-0.75-0.75-0.049 0-0.097 0.005-0.144 0.014l0.005-0.001c-1.046 0.2-1.951 0.452-2.826 0.77l0.127-0.040c-0.79 0.242-1.461 0.679-1.98 1.255l-0.003 0.004c-0.445 0.567-0.755 1.26-0.869 2.018l-0.003 0.024c-0.117 0.714-0.183 1.536-0.183 2.374 0 0.249 0.006 0.497 0.018 0.743l-0.001-0.035 0.003 0.248c0.008 0.656 0.004 1.312 0 1.968l-0.005 1.156c0.005 1.949 1.585 3.526 3.535 3.526s3.53-1.578 3.535-3.526v-0zM13.216 13.78c-1.123 0-2.034-0.911-2.034-2.034s0.911-2.034 2.034-2.034c1.123 0 2.034 0.911 2.034 2.034v0c-0.002 1.123-0.911 2.033-2.034 2.034h-0zM4.795 8.212c-0.761 0.001-1.465 0.244-2.040 0.656l0.010-0.007c-0.001-0.086 0.001-0.171 0-0.257l-0.003-0.252c-0.010-0.204-0.016-0.442-0.016-0.682 0-0.742 0.057-1.471 0.167-2.182l-0.010 0.079c0.070-0.516 0.266-0.977 0.555-1.364l-0.005 0.008c0.351-0.371 0.797-0.65 1.3-0.797l0.021-0.005c0.685-0.254 1.515-0.486 2.368-0.654l0.106-0.017c0.351-0.067 0.613-0.372 0.613-0.737 0-0.414-0.336-0.75-0.75-0.75-0.045 0-0.088 0.004-0.131 0.011l0.005-0.001c-1.046 0.2-1.951 0.452-2.826 0.77l0.127-0.040c-0.79 0.242-1.46 0.678-1.978 1.254l-0.003 0.004c-0.446 0.567-0.756 1.262-0.871 2.020l-0.003 0.024c-0.116 0.713-0.182 1.534-0.182 2.371 0 0.249 0.006 0.497 0.017 0.743l-0.001-0.035 0.003 0.249c0.008 0.653 0.004 1.308 0 1.961l-0.005 1.163c0 0 0 0 0 0 0 1.952 1.582 3.534 3.534 3.534s3.534-1.582 3.534-3.534c0-1.952-1.582-3.534-3.534-3.534v0zM4.795 13.78c-1.123 0-2.034-0.911-2.034-2.034s0.911-2.034 2.034-2.034c1.123 0 2.034 0.911 2.034 2.034v0c-0.001 1.123-0.911 2.033-2.034 2.034h-0zM22.322 20.254c0-0.006 0-0.012 0-0.018 0-1.963-1.591-3.554-3.554-3.554s-3.554 1.591-3.554 3.554c0 1.963 1.591 3.554 3.554 3.554 0.767 0 1.478-0.243 2.059-0.657l-0.011 0.007c0.001 0.086-0.001 0.171 0 0.257l0.004 0.229c0.011 0.205 0.017 0.444 0.017 0.686 0 0.749-0.058 1.485-0.169 2.203l0.010-0.080c-0.069 0.515-0.264 0.975-0.552 1.361l0.005-0.008c-0.351 0.373-0.798 0.652-1.302 0.798l-0.020 0.005c-0.686 0.256-1.516 0.488-2.369 0.655l-0.104 0.017c-0.354 0.064-0.619 0.37-0.619 0.738 0 0.414 0.336 0.75 0.75 0.75 0.046 0 0.091-0.004 0.135-0.012l-0.005 0.001c1.044-0.198 1.949-0.451 2.823-0.77l-0.124 0.040c0.791-0.24 1.463-0.677 1.981-1.254l0.004-0.004c0.445-0.567 0.755-1.261 0.87-2.019l0.003-0.024c0.116-0.718 0.182-1.546 0.182-2.389 0-0.251-0.006-0.501-0.017-0.75l0.001 0.035-0.004-0.225c-0.008-0.648-0.004-1.297 0-1.945zM18.787 22.289c-1.124 0-2.035-0.911-2.035-2.035s0.911-2.035 2.035-2.035c1.124 0 2.035 0.911 2.035 2.035 0 0 0 0 0 0v0c-0.001 1.124-0.911 2.035-2.035 2.035h-0zM30.738 21.387l0.004-1.133c0-0.006 0-0.012 0-0.019 0-1.963-1.591-3.554-3.554-3.554s-3.554 1.591-3.554 3.554c0 1.963 1.591 3.554 3.554 3.554 0.768 0 1.48-0.244 2.061-0.658l-0.011 0.007c0.001 0.085-0.001 0.171 0 0.256l0.004 0.273c0.010 0.196 0.015 0.426 0.015 0.657 0 0.744-0.058 1.475-0.17 2.187l0.010-0.079c-0.080 1.064-0.847 1.928-1.855 2.153l-0.016 0.003c-0.686 0.257-1.515 0.489-2.367 0.655l-0.103 0.017c-0.354 0.065-0.618 0.371-0.618 0.738 0 0.414 0.335 0.749 0.749 0.75h0c0.046-0 0.092-0.004 0.136-0.012l-0.005 0.001c1.042-0.197 1.948-0.449 2.821-0.77l-0.122 0.039c1.531-0.408 2.672-1.699 2.854-3.281l0.002-0.018c0.118-0.714 0.185-1.538 0.185-2.377 0-0.241-0.006-0.48-0.017-0.718l0.001 0.034-0.004-0.271c-0.008-0.664-0.004-1.326-0-1.99zM27.207 22.289c0 0 0 0-0 0-1.124 0-2.035-0.911-2.035-2.035s0.911-2.035 2.035-2.035c1.124 0 2.035 0.911 2.035 2.035 0 0 0 0 0 0v0c-0.001 1.124-0.911 2.035-2.035 2.035h-0z"></path>
</svg>